<?xml version="1.0" standalone="no"?>
<!DOCTYPE svg PUBLIC "-//W3C//DTD SVG 20010904//EN"
 "http://www.w3.org/TR/2001/REC-SVG-20010904/DTD/svg10.dtd">
<svg version="1.0" xmlns="http://www.w3.org/2000/svg"
 width="16.000000pt" height="16.000000pt" viewBox="0 0 16.000000 16.000000"
 preserveAspectRatio="xMidYMid meet">
<metadata>
Created by potrace 1.11, written by Peter Selinger 2001-2013
</metadata>
<g transform="translate(0.000000,16.000000) scale(0.002286,-0.002286)"
fill="#000000" stroke="none">
<path d="M2989 6835 c-140 -95 -429 -612 -641 -1145 -56 -141 -170 -471 -164
-477 2 -2 79 15 172 37 93 23 189 46 214 51 25 6 53 13 63 15 52 12 66 15 107
24 25 5 86 18 135 30 135 30 496 108 530 113 17 3 63 12 102 21 40 9 87 18
105 21 18 3 40 8 48 10 8 2 26 6 40 9 14 3 50 10 80 15 30 6 66 13 80 16 14 3
48 9 75 15 63 12 79 15 313 55 106 18 195 35 198 37 7 8 -163 194 -331 363
-227 227 -371 357 -550 499 -60 47 -116 91 -123 97 -44 37 -218 147 -277 176
-91 44 -132 48 -176 18z"/>
<path d="M5557 5524 c-1 -1 -72 -4 -157 -8 -227 -9 -396 -22 -433 -32 -14 -5
-3 -27 70 -132 48 -70 134 -197 192 -282 57 -85 146 -216 197 -291 208 -307
585 -914 656 -1057 6 -12 15 -21 19 -20 11 4 155 198 237 318 36 52 84 122
106 155 61 88 231 364 296 480 40 70 176 339 183 360 3 11 14 38 22 60 28 68
55 159 55 182 0 70 -200 149 -506 198 -54 9 -110 18 -124 20 -53 8 -108 15
-185 21 -44 3 -93 8 -110 10 -47 6 -513 22 -518 18z"/>
<path d="M4565 5448 c-27 -4 -72 -9 -100 -12 -27 -3 -70 -9 -95 -12 -49 -7
-483 -80 -515 -87 -11 -3 -40 -8 -65 -13 -25 -4 -47 -8 -50 -9 -3 -1 -25 -5
-50 -9 -383 -66 -1567 -357 -1601 -394 -4 -4 -25 -79 -48 -167 -22 -88 -49
-196 -60 -240 -32 -125 -95 -414 -115 -525 -2 -14 -7 -36 -10 -50 -3 -14 -8
-38 -11 -55 -3 -16 -14 -84 -25 -150 -11 -66 -22 -131 -24 -145 -3 -14 -7 -45
-10 -70 -3 -25 -8 -58 -11 -75 -8 -51 -16 -108 -21 -155 -2 -25 -6 -58 -9 -75
-2 -16 -7 -68 -10 -115 -4 -47 -8 -96 -11 -110 -4 -25 -14 -200 -18 -319 -1
-37 3 -68 9 -75 32 -32 905 -446 941 -446 3 0 25 -9 50 -20 241 -110 917 -347
1236 -434 l157 -43 103 84 c57 47 130 108 162 136 33 29 69 60 80 70 149 131
268 241 464 432 268 260 570 574 712 740 23 28 69 79 100 115 47 53 105 124
192 237 7 8 -19 67 -80 185 -268 519 -503 914 -767 1288 -171 244 -407 527
-437 526 -7 0 -35 -3 -63 -8z"/>
<path d="M1745 4813 c-162 -51 -358 -123 -530 -195 -105 -44 -445 -208 -500
-241 -11 -7 -56 -32 -100 -57 -115 -63 -296 -183 -400 -263 -130 -101 -205
-182 -212 -229 -8 -50 93 -171 257 -308 36 -30 67 -57 70 -60 53 -53 469 -342
715 -497 149 -93 390 -233 402 -233 5 0 10 6 10 13 0 14 12 141 19 202 3 32
46 342 59 430 13 86 52 311 120 700 16 87 67 345 89 447 34 155 42 197 50 243
3 14 8 34 11 45 7 23 5 24 -60 3z"/>
<path d="M6028 3181 c-1 -5 -64 -72 -138 -151 -74 -78 -148 -156 -165 -174
-16 -17 -73 -77 -125 -132 -52 -55 -151 -160 -220 -232 -255 -270 -491 -511
-756 -771 -101 -100 -184 -183 -184 -185 0 -5 343 -118 430 -141 36 -10 101
-28 145 -41 81 -23 434 -109 490 -118 17 -3 89 -17 160 -31 72 -15 145 -28
164 -31 19 -2 46 -6 60 -9 14 -2 46 -7 71 -10 25 -3 70 -10 100 -15 115 -19
211 -25 385 -25 152 0 188 3 228 19 29 11 52 27 57 40 35 89 -50 443 -222 921
-100 281 -258 672 -358 890 -22 50 -53 116 -67 148 -24 52 -46 71 -55 48z"/>
<path d="M1697 2248 c-6 -39 -1 -986 6 -1043 3 -22 8 -87 12 -145 3 -58 8
-119 10 -135 2 -17 6 -61 10 -100 11 -122 16 -163 40 -325 35 -240 72 -344
124 -354 99 -19 304 67 616 260 234 144 592 394 718 499 10 9 34 28 55 43 20
15 46 35 57 44 11 9 49 40 85 68 97 77 145 117 240 200 47 41 103 89 124 107
l38 31 -47 21 c-26 12 -49 21 -52 21 -21 0 -1279 512 -1451 591 -35 16 -65 29
-68 29 -4 0 -130 55 -252 111 -35 16 -65 29 -67 29 -2 0 -43 18 -90 40 -47 22
-90 40 -94 40 -5 0 -11 -15 -14 -32z"/>
</g>
</svg>
